Coordinates
version=1
nRows=8
nColumns=42
inDegrees=yes

Units are S.I. units (second, meters, Newtons, ...)
If the header above contains a line with 'inDegrees', this indicates whether rotational values are in degrees (yes) or radians (no).

endheader
time	pelvis_tilt	pelvis_list	pelvis_rotation	pelvis_tx	pelvis_ty	pelvis_tz	hip_flexion_r	hip_adduction_r	hip_rotation_r	knee_angle_r	knee_adduction_r	knee_angle_r_beta	ankle_angle_r	subtalar_angle_r	mtp_angle_r	hip_flexion_l	hip_adduction_l	hip_rotation_l	knee_angle_l	knee_adduction_l	knee_angle_l_beta	ankle_angle_l	subtalar_angle_l	mtp_angle_l	lumbar_extension	lumbar_bending	lumbar_rotation	arm_flex_r	arm_add_r	arm_rot_r	elbow_flex_r	pro_sup_r	wrist_flex_r	wrist_dev_r	arm_flex_l	arm_add_l	arm_rot_l	elbow_flex_l	pro_sup_l	wrist_flex_l	wrist_dev_l
      0.73000000	      1.94554758	     -1.05640950	     -3.43953661	     -1.40316717	      0.95744118	      0.34253487	    -15.65739781	      0.65005778	     -2.76560540	      2.49140602	      4.79681657	      0.04348324	     16.78816645	     14.14391686	     -7.84169826	     19.56380100	     -3.92755257	    -16.94056284	      6.85064168	      0.55317007	      0.11956625	      3.48553224	     16.70895042	     -7.84169826	     -9.47733921	      2.36708921	      4.49915138	      6.58998775	    -18.12661815	      9.83788913	     38.10565460	     90.00000001	      0.00000000	      0.00000000	    -13.41761363	    -12.03672768	      9.24383808	     29.06091749	     90.00000001	      0.00000000	      0.00000000
      0.74000000	      1.74346028	     -1.26737915	     -3.48245270	     -1.39358884	      0.95571266	      0.34267676	    -15.99369227	      0.91158722	     -2.61630275	      2.66648281	      4.68347993	      0.04653890	     17.02239914	     14.01978406	     -7.83692162	     19.75586875	     -4.03657136	    -16.97750005	      5.67539707	      0.63884830	      0.09905437	      3.30718235	     17.71595582	     -7.83692162	     -9.32248036	      2.42385380	      4.59691963	      6.81332937	    -18.13139612	     10.13030628	     37.99419809	     90.00000001	      0.00000000	      0.00000000	    -13.52268414	    -12.02488617	      9.18031097	     28.99944771	     90.00000001	      0.00000000	      0.00000000
      0.75000000	      1.74332783	     -1.34634725	     -3.62990421	     -1.38371612	      0.95425617	      0.34270569	    -16.58432799	      0.92678864	     -2.35833617	      2.77859070	      4.66833349	      0.04849556	     17.14766071	     13.72699038	     -7.81904176	     19.83282615	     -4.05304869	    -17.65488129	      5.11565917	      0.61872105	      0.08928510	      3.35931224	     19.21977774	     -7.81904176	     -9.36714392	      2.30892705	      4.70907757	      7.02387091	    -18.27482378	     11.05151705	     37.96126798	     90.00000001	      0.00000000	      0.00000000	    -13.61441332	    -11.93351242	      8.69656887	     28.90188841	     90.00000001	      0.00000000	      0.00000000
      0.76000000	      1.60616760	     -1.48595650	     -3.73978004	     -1.37375160	      0.95276082	      0.34281371	    -16.99740636	      1.06358892	     -2.18895928	      2.97138756	      4.55344386	      0.05186050	     17.30507001	     13.71109138	     -7.81569460	     19.97494589	     -4.12338701	    -17.65784725	      4.77466702	      0.64185835	      0.08333366	      3.26680986	     19.61862717	     -7.81569460	     -9.25713994	      2.26751557	      4.83952256	      7.14988073	    -18.21003657	     11.22572293	     37.79738381	     90.00000001	      0.00000000	      0.00000000	    -13.66049259	    -11.93912346	      8.64773482	     28.78248350	     90.00000001	      0.00000000	      0.00000000
      0.77000000	      1.45942619	     -1.58331133	     -3.82897227	     -1.36366015	      0.95133278	      0.34275038	    -17.36147399	      1.08372988	     -2.15769282	      3.25786363	      4.55851731	      0.05686045	     17.28907735	     13.69974197	     -7.81466663	     20.18204713	     -4.13048285	    -17.58170460	      4.89872462	      0.59407246	      0.08549887	      3.23069509	     19.59913057	     -7.81466663	     -9.12635137	      2.18531520	      4.93969279	      7.15409187	    -18.14790099	     11.26562478	     37.81480924	     90.00000001	      0.00000000	      0.00000000	    -13.71706403	    -11.96562387	      8.62991419	     28.77945216	     90.00000001	      0.00000000	      0.00000000
      0.78000000	      1.32726046	     -1.66433615	     -3.99113473	     -1.35318805	      0.95006209	      0.34274705	    -17.74675002	      1.06107240	     -2.07100841	      3.56378412	      4.52965674	      0.06219977	     17.27804036	     13.70414064	     -7.81358249	     20.25933282	     -4.12308945	    -17.40784502	      5.14945505	      0.47823479	      0.08987495	      3.13080956	     19.58571617	     -7.81358249	     -8.98054709	      2.06966166	      5.07949796	      7.07028910	    -18.05451076	     11.34646799	     37.76678472	     90.00000001	      0.00000000	      0.00000000	    -13.80774734	    -11.98387380	      8.60980067	     28.73273602	     90.00000001	      0.00000000	      0.00000000
      0.79000000	      1.75675604	     -1.34150916	     -4.49144439	     -1.34262767	      0.94967077	      0.34262969	    -18.72805544	      0.37776506	     -1.55148640	      3.78435024	      4.59362499	      0.06604937	     17.37425747	     13.89294789	     -7.80534517	     19.65210642	     -3.68552301	    -17.84711194	      5.56143229	      0.20763210	      0.09706530	      2.51069641	     19.23669519	     -7.80534517	     -9.45291919	      1.44360834	      5.48215559	      7.23370744	    -18.13821875	     12.35572758	     37.36456412	     90.00000001	      0.00000000	      0.00000000	    -13.56898516	    -11.88687631	      8.24795920	     28.24535890	     90.00000001	      0.00000000	      0.00000000
      0.80000000	      1.65611594	     -1.35221956	     -4.71712411	     -1.33188067	      0.94877419	      0.34262021	    -19.08717285	      0.22818311	     -1.36668713	      4.18758638	      4.56174211	      0.07308717	     17.26891645	     13.92776759	     -7.80376987	     19.60017006	     -3.61019141	    -17.46802852	      6.10707032	      0.03036621	      0.10658848	      2.21692402	     19.16464056	     -7.80376987	     -9.32092991	      1.23201846	      5.66029954	      7.05962705	    -18.02897013	     12.44098793	     37.31011247	     90.00000001	      0.00000000	      0.00000000	    -13.59542188	    -11.93502890	      8.21078099	     28.19694294	     90.00000001	      0.00000000	      0.00000000
